<svg width="50" height="50" viewBox="0 0 50 50" fill="none" xmlns="http://www.w3.org/2000/svg">
<circle cx="25" cy="25" r="25" fill="white"/>
<path fill-rule="evenodd" clip-rule="evenodd" d="M16 16C14.6002 15.9999 13.3864 16.9678 13.075 18.3325L25 25.621L36.925 18.3325C36.6136 16.9678 35.3998 15.9999 34 16H16ZM13 30.7015V20.0455L21.7045 25.3645L13 30.7015ZM23.1415 26.245L13.2865 32.2855C13.7835 33.3335 14.8401 34.0011 16 34H34C35.1597 34.0003 36.2157 33.3321 36.712 32.284L26.857 26.2435L25 27.379L23.1415 26.2435V26.245ZM37 30.7015L28.2955 25.366V25.3645L37 20.0455V30.7015Z" fill="black"/>
</svg>
