<svg width="50" height="50" viewBox="0 0 50 50" fill="none" xmlns="http://www.w3.org/2000/svg">
<path d="M24.9993 0C11.1931 0 0 11.1932 0 24.9996C0 38.8063 11.1927 50 24.9993 50C38.8064 50 50 38.8063 50 24.9996C49.9996 11.1932 38.8064 0 24.9993 0ZM14.6258 11.2754C16.3263 11.2754 17.7057 12.5333 17.7057 14.0851C17.7057 15.637 16.3263 16.8949 14.6258 16.8949C12.9244 16.8949 11.5459 15.637 11.5459 14.0851C11.5459 12.5333 12.9244 11.2754 14.6258 11.2754ZM17.729 35.3075H11.6436V19.428H17.729V35.3075ZM38.4079 35.3075H32.293V26.5756C32.293 25.5788 32.108 24.8733 31.7393 24.4592C31.3701 24.046 30.8518 23.8385 30.1848 23.8385C29.447 23.8385 28.8483 24.1177 28.3901 24.6762C27.9314 25.2347 27.7028 26.2363 27.7028 27.6818V35.3075H21.6169V19.428H27.2835V22.0143C28.1303 20.9583 28.9879 20.2031 29.855 19.7492C30.7221 19.2957 31.7782 19.0692 33.0244 19.0692C34.7094 19.0692 36.0274 19.5698 36.9797 20.5718C37.9311 21.5734 38.4074 23.1209 38.4074 25.2144V35.3075H38.4079Z" fill="white"/>
</svg>
