<svg width="50" height="50" viewBox="0 0 50 50" fill="none" xmlns="http://www.w3.org/2000/svg">
<path d="M25 0C11.1887 0 0 11.1903 0 25C0 38.8097 11.1903 50 25 50C38.8113 50 50 38.8097 50 25C50 11.1903 38.8097 0 25 0ZM37.279 17.1274L33.1758 36.4629C32.8726 37.8339 32.0565 38.1661 30.9177 37.521L24.6677 32.9145L21.6532 35.8177C21.321 36.15 21.0387 36.4323 20.3935 36.4323L20.8371 30.071L32.4194 19.6065C32.9242 19.1629 32.3081 18.9113 31.6419 19.3548L17.3274 28.3661L11.1581 26.4403C9.81774 26.0177 9.7871 25.1 11.4403 24.4548L35.5435 15.1597C36.6629 14.7565 37.6403 15.4323 37.2774 17.1258L37.279 17.1274Z" fill="white"/>
</svg>
