<svg width="340" height="340" viewBox="0 0 340 340" fill="none" xmlns="http://www.w3.org/2000/svg">
<path d="M169.841 316.156L65.0452 287.065L41.5777 23.75H298.422L274.923 287.022L169.841 316.156Z" fill="black" stroke="white" stroke-width="5"/>
<path d="M170 295.991L256.806 271.926L277.227 43.1481H170V295.991Z" fill="black"/>
<path d="M170 140.154H213.456L216.452 106.526H170V73.6843H170.117H252.344L251.558 82.4925L243.493 172.996H170V140.154Z" fill="white"/>
<path d="M170.202 225.441L170.053 225.484L133.482 215.602L131.144 189.412H113.369H98.175L102.776 240.975L170.042 259.654L170.202 259.611V225.441Z" fill="#EBEBEB"/>
<path d="M210.662 171.604L206.709 215.581L170.085 225.463V259.633L237.405 240.975L237.904 235.429L243.61 171.604H210.662Z" fill="white"/>
<path d="M170.117 73.6843V94.0843V106.441V106.526H90.8969H90.7906L90.1319 99.1418L88.6337 82.4925L87.8475 73.6843H170.117Z" fill="#EBEBEB"/>
<path d="M170 140.154V160.554V172.911V172.996H133.992H133.886L133.227 165.612L131.739 148.963L130.953 140.154H170Z" fill="#EBEBEB"/>
</svg>
