<svg width="340" height="340" viewBox="0 0 340 340" fill="none" xmlns="http://www.w3.org/2000/svg">
<path d="M245.5 170C245.5 155.936 238.504 143.506 227.802 136C238.504 128.494 245.5 116.064 245.5 102C245.5 79.0799 226.92 60.5 204 60.5H177.5H170H162.5H136C113.08 60.5 94.5 79.0799 94.5 102C94.5 116.064 101.496 128.494 112.198 136C101.496 143.506 94.5 155.936 94.5 170C94.5 184.064 101.496 196.494 112.198 204C101.496 211.506 94.5 223.936 94.5 238C94.5 260.92 113.08 279.5 136 279.5C158.92 279.5 177.5 260.92 177.5 238V211.5V204V201.939C184.688 207.91 193.925 211.5 204 211.5C226.92 211.5 245.5 192.92 245.5 170ZM7.5 170C7.5 80.254 80.254 7.5 170 7.5C259.746 7.5 332.5 80.254 332.5 170C332.5 259.746 259.746 332.5 170 332.5C80.254 332.5 7.5 259.746 7.5 170Z" stroke="white" stroke-width="15"/>
</svg>
