<svg width="341" height="341" viewBox="0 0 341 341" fill="none" xmlns="http://www.w3.org/2000/svg">
<path d="M170.341 317.093L65.2296 287.915L41.6814 23.8125H299.318L275.739 287.871L170.341 317.093Z" fill="black" stroke="white" stroke-width="5"/>
<path d="M170.5 296.862L257.562 272.725L278.043 43.275H170.5V296.862Z" fill="black"/>
<path d="M170.5 142.868H126.916L123.911 109.141H170.5V76.2029H170.383H87.9141L88.7026 85.0475L96.7907 175.807H170.5V142.868Z" fill="#EBEBEB"/>
<path d="M170.5 228.406L170.351 228.449L133.672 218.549L131.328 192.281H113.5H98.2613L102.875 243.986L170.351 262.719L170.5 262.677V228.406Z" fill="#EBEBEB"/>
<path d="M170.383 142.868V175.807H210.94L207.126 218.528L170.383 228.438V262.709L237.911 243.985L238.402 238.423L246.138 151.713L246.948 142.868H238.071H170.383Z" fill="white"/>
<path d="M170.383 76.2029V96.6629V109.067V109.141H249.836H249.942L250.603 101.746L252.106 85.0475L252.894 76.2029H170.383Z" fill="white"/>
</svg>
