<svg width="340" height="383" viewBox="0 0 340 383" fill="none" xmlns="http://www.w3.org/2000/svg">
<path d="M170 382.961C164.915 382.961 159.754 381.593 155.277 379.01L108.451 351.279C101.469 347.328 104.884 345.96 107.161 345.201C116.496 341.934 118.393 341.25 128.335 335.552C129.397 334.944 130.763 335.172 131.826 335.855L167.799 357.205C169.089 357.965 170.911 357.965 172.125 357.205L312.299 276.214C313.589 275.454 314.424 273.935 314.424 272.415V110.433C314.424 108.837 313.589 107.394 312.223 106.558L172.125 25.6431C170.835 24.8834 169.089 24.8834 167.799 25.6431L27.7768 106.634C26.4107 107.394 25.5759 108.913 25.5759 110.509V272.415C25.5759 273.935 26.4107 275.454 27.7768 276.138L66.1786 298.323C87.0491 308.732 99.7991 296.5 99.7991 284.115V124.261C99.7991 121.981 101.621 120.234 103.897 120.234H121.656C123.857 120.234 125.754 121.981 125.754 124.261V284.191C125.754 311.999 110.576 327.954 84.2411 327.954C76.1205 327.954 69.7455 327.954 51.9866 319.141L15.2545 297.943C6.14732 292.701 0.53125 282.9 0.53125 272.339V110.433C0.53125 99.9482 6.14732 90.0713 15.2545 84.8289L155.277 3.83787C164.156 -1.17659 175.92 -1.17659 184.723 3.83787L324.897 84.9048C334.004 90.1472 339.621 99.9482 339.621 110.509V272.415C339.621 282.9 334.004 292.701 324.897 298.019L184.723 379.01C180.246 381.593 175.161 382.961 170 382.961ZM283.156 223.334C283.156 193.019 262.665 184.966 219.634 179.268C176.071 173.494 171.67 170.53 171.67 160.35C171.67 151.916 175.388 140.672 207.643 140.672C236.406 140.672 247.031 146.902 251.433 166.352C251.812 168.175 253.482 169.543 255.379 169.543H273.594C274.732 169.543 275.795 169.087 276.554 168.251C277.312 167.415 277.692 166.276 277.616 165.136C274.808 131.63 252.571 116.055 207.643 116.055C167.647 116.055 143.817 132.922 143.817 161.261C143.817 191.956 167.571 200.465 205.897 204.264C251.812 208.747 255.379 215.509 255.379 224.55C255.379 240.201 242.781 246.887 213.259 246.887C176.147 246.887 168.027 237.542 165.295 219.079C164.991 217.104 163.321 215.661 161.272 215.661H143.134C140.857 215.661 139.112 217.484 139.112 219.687C139.112 243.316 151.937 271.503 213.335 271.503C257.656 271.427 283.156 253.877 283.156 223.334V223.334Z" fill="white"/>
</svg>
