<svg width="74" height="74" viewBox="0 0 74 74" fill="none" xmlns="http://www.w3.org/2000/svg">
<path d="M62 72H12C6.47715 72 2 67.5229 2 62V12.2586V12C2 6.47716 6.47715 2 12 2H62C67.5229 2 72 6.47716 72 12V12.2586V62C72 67.5228 67.5229 72 62 72Z" fill="white"/>
<path d="M2 12.2586V62C2 67.5228 6.47715 72 12 72H62C67.5228 72 72 67.5228 72 62V12.2586M2 12.2586H72M2 12.2586V12C2 6.47716 6.47715 2 12 2H62C67.5228 2 72 6.47716 72 12V12.2586M31.5 54.5L42.8134 26.6724" stroke="black" stroke-width="3" stroke-linecap="round"/>
<path d="M23.4179 45.4483L14.015 38.8104L23.4179 32.1724" stroke="black" stroke-width="3" stroke-linecap="round"/>
<path d="M49.0149 45.4483L59.4627 38.8104L49.0149 32.1724" stroke="black" stroke-width="3" stroke-linecap="round"/>
</svg>
