<svg width="340" height="303" viewBox="0 0 340 303" fill="none" xmlns="http://www.w3.org/2000/svg">
<path d="M170 120.938C153.287 120.938 139.676 134.548 139.676 151.261C139.676 167.974 153.287 181.585 170 181.585C186.713 181.585 200.324 167.974 200.324 151.261C200.324 134.548 186.713 120.938 170 120.938ZM85.1063 211.526L78.4125 209.869C28.6025 197.246 0 175.89 0 151.208C0 126.526 28.6131 105.17 78.4125 92.5476L85.1063 90.8901L86.9869 97.5307C92.0231 114.903 98.4938 131.839 106.303 148.223L107.738 151.208L106.303 154.247C98.5044 170.567 92.0231 187.503 86.9869 204.939L85.1063 211.526ZM75.3206 108.039C37.4638 118.664 14.2269 134.984 14.2269 151.208C14.2269 167.433 37.4744 183.689 75.3206 194.378C79.9744 179.598 85.5631 165.212 92.0869 151.208C85.5525 137.204 79.9638 122.818 75.3206 108.039V108.039ZM254.894 211.526L253.013 204.886C247.977 187.514 241.506 170.578 233.697 154.247L232.263 151.208L233.697 148.169C241.496 131.849 247.977 114.913 253.013 97.4776L254.894 90.8901L261.588 92.5476C311.398 105.17 340 126.526 340 151.208C340 175.89 311.387 197.246 261.588 209.869L254.894 211.526ZM247.913 151.208C254.724 165.924 260.366 180.374 264.679 194.378C302.589 183.699 325.773 167.433 325.773 151.208C325.773 134.984 302.526 118.728 264.679 108.039C260.026 122.754 254.437 137.204 247.913 151.208V151.208ZM75.2038 107.986L73.3231 101.345C59.3194 51.9814 63.58 16.5682 85 4.22197C106.027 -7.90115 139.729 6.43197 175.089 42.7376L179.902 47.6676L175.089 52.5976C162.531 65.6557 151.077 79.7126 140.781 94.6514L138.847 97.3607L135.522 97.637C117.428 99.0714 99.4925 101.951 81.8975 106.275L75.2038 107.986ZM102.096 14.082C98.2813 14.082 94.9025 14.8576 92.0763 16.5151C78.0194 24.6538 75.5331 52.8739 85.2125 90.9432C100.321 87.5645 115.589 85.1845 131.038 83.8032C139.889 71.1807 149.632 59.1214 160.087 47.7739C138.008 26.2476 117.088 14.0713 102.096 14.0713V14.082ZM237.957 302.498C237.904 302.498 237.904 302.498 237.957 302.498C217.759 302.498 191.802 287.336 164.911 259.668L160.097 254.738L164.911 249.808C177.469 236.75 188.923 222.693 199.219 207.754L201.099 205.045L204.425 204.716C222.519 203.334 240.454 200.455 258.102 196.078L264.796 194.42L266.677 201.061C280.681 250.424 276.42 285.784 255 298.12C249.794 301.106 243.929 302.604 237.957 302.487V302.498ZM179.902 254.632C201.981 276.158 222.902 288.334 237.894 288.334H237.947C241.708 288.334 245.087 287.506 247.913 285.901C261.97 277.763 264.52 249.543 254.777 211.473C239.668 214.852 224.336 217.232 208.951 218.56C200.101 231.236 190.357 243.242 179.902 254.643V254.632ZM264.796 107.986L258.102 106.275C240.454 101.961 222.519 99.082 204.425 97.637L201.099 97.3607L199.219 94.6514C188.923 79.7126 177.469 65.6557 164.911 52.5976L160.097 47.6676L164.911 42.7376C200.271 6.43197 233.973 -7.90115 255 4.22197C276.42 16.5576 280.681 51.9814 266.677 101.345L264.796 107.986ZM208.962 83.8032C225.122 85.3014 240.507 87.6814 254.787 90.9432C264.531 52.8739 261.981 24.6432 247.924 16.5151C233.92 8.4401 207.581 20.8289 179.913 47.7845C190.368 59.1851 200.058 71.1914 208.962 83.8139V83.8032ZM102.096 302.498C96.1138 302.604 90.1956 301.116 85 298.131C63.58 285.795 59.3194 250.424 73.3231 201.071L75.2038 194.431L81.8975 196.088C98.2813 200.243 116.323 203.111 135.522 204.726L138.847 205.056L140.728 207.765C151.024 222.704 162.478 236.761 175.036 249.819L179.849 254.749L175.036 259.679C148.198 287.346 122.241 302.508 102.096 302.508V302.498ZM85.2231 211.473C75.48 249.543 78.03 277.773 92.0869 285.901C106.091 293.87 132.377 281.588 160.097 254.632C149.642 243.231 139.899 231.225 131.049 218.549C115.611 217.221 100.332 214.841 85.2231 211.463V211.473ZM170 220.377C158.323 220.377 146.37 219.878 134.364 218.879L131.038 218.603L129.104 215.84C122.358 206.097 115.929 196.088 110.011 185.793C104.029 175.497 98.5575 164.989 93.4681 154.247L92.0337 151.208L93.4681 148.169C98.5575 137.438 104.04 126.919 110.011 116.624C115.876 106.498 122.294 96.3726 129.104 86.5763L131.038 83.8139L134.364 83.5376C158.1 81.5401 181.953 81.5401 205.636 83.5376L208.962 83.8139L210.896 86.5763C224.453 106.052 236.406 126.696 246.532 148.169L247.966 151.208L246.532 154.247C236.406 175.72 224.506 196.364 210.896 215.84L208.962 218.603L205.636 218.879C193.683 219.878 181.677 220.377 170 220.377ZM138.901 204.992C159.821 206.596 180.179 206.596 201.152 204.992C212.829 187.896 223.231 169.908 232.252 151.198C223.284 132.498 212.883 114.509 201.099 97.4032C180.402 95.7988 159.598 95.7988 138.901 97.4032C127.117 114.499 116.705 132.487 107.748 151.198C116.769 169.898 127.171 187.886 138.901 204.992V204.992Z" fill="white"/>
</svg>
