<svg width="340" height="340" fill="none" xmlns="http://www.w3.org/2000/svg"><path d="M169.841 316.156L65.045 287.065 41.578 23.75h256.844l-23.499 263.272-105.082 29.134z" fill="#000" stroke="#fff" stroke-width="5"/><path d="M170 295.991l86.806-24.065 20.421-228.778H170v252.843z" fill="#000"/><path d="M170 140.154h43.456l2.996-33.628H170V73.684h82.344l-.786 8.809-8.065 90.503H170v-32.842z" fill="#fff"/><path d="M170.202 225.441l-.149.043-36.571-9.882-2.338-26.19H98.175l4.601 51.563 67.266 18.679.16-.043v-34.17z" fill="#EBEBEB"/><path d="M210.662 171.604l-3.953 43.977-36.624 9.882v34.17l67.32-18.658.499-5.546 5.706-63.825h-32.948z" fill="#fff"/><path d="M170.117 73.684v32.842H90.791l-.66-7.384-1.497-16.65-.787-8.808h82.27zm-.117 66.47v32.842h-36.114l-.659-7.384-1.488-16.649-.786-8.809H170z" fill="#EBEBEB"/></svg>