<svg width="340" height="340" fill="none" xmlns="http://www.w3.org/2000/svg"><path d="M245.5 170c0-14.064-6.996-26.494-17.698-34 10.702-7.506 17.698-19.936 17.698-34 0-22.92-18.58-41.5-41.5-41.5h-68c-22.92 0-41.5 18.58-41.5 41.5 0 14.064 6.996 26.494 17.698 34-10.702 7.506-17.698 19.936-17.698 34s6.996 26.494 17.698 34c-10.702 7.506-17.698 19.936-17.698 34 0 22.92 18.58 41.5 41.5 41.5s41.5-18.58 41.5-41.5v-36.061A41.33 41.33 0 00204 211.5c22.92 0 41.5-18.58 41.5-41.5zm-238 0C7.5 80.254 80.254 7.5 170 7.5S332.5 80.254 332.5 170 259.746 332.5 170 332.5 7.5 259.746 7.5 170z" stroke="#fff" stroke-width="15"/></svg>