<svg width="341" height="341" fill="none" xmlns="http://www.w3.org/2000/svg"><path d="M170.341 317.093L65.23 287.915 41.68 23.812h257.637l-23.579 264.059-105.398 29.222z" fill="#000" stroke="#fff" stroke-width="5"/><path d="M170.5 296.862l87.062-24.137 20.481-229.45H170.5v253.587z" fill="#000"/><path d="M170.5 142.868h-43.584l-3.005-33.727H170.5V76.203H87.914l.789 8.844 8.088 90.76H170.5v-32.939zm0 85.538l-.149.043-36.679-9.9-2.344-26.268H98.261l4.614 51.705 67.476 18.733.149-.042v-34.271z" fill="#EBEBEB"/><path d="M170.383 142.868v32.939h40.557l-3.814 42.721-36.743 9.91v34.271l67.528-18.724.491-5.562 7.736-86.71.81-8.845h-76.565zm0-66.665v32.938h79.559l.661-7.395 1.503-16.698.788-8.845h-82.511z" fill="#fff"/></svg>