<svg width="74" height="74" fill="none" xmlns="http://www.w3.org/2000/svg"><path d="M62 72H12C6.477 72 2 67.523 2 62V12C2 6.477 6.477 2 12 2h50c5.523 0 10 4.477 10 10v50c0 5.523-4.477 10-10 10z" fill="#fff"/><path d="M2 12.259V62c0 5.523 4.477 10 10 10h50c5.523 0 10-4.477 10-10V12.259m-70 0h70m-70 0V12C2 6.477 6.477 2 12 2h50c5.523 0 10 4.477 10 10v.259M31.5 54.5l11.313-27.828" stroke="#000" stroke-width="3" stroke-linecap="round"/><path d="M23.418 45.448l-9.403-6.638 9.403-6.638m25.597 13.276l10.448-6.638-10.448-6.638" stroke="#000" stroke-width="3" stroke-linecap="round"/></svg>