<svg width="50" height="50" fill="none" xmlns="http://www.w3.org/2000/svg"><path d="M25 0C11.192 0 0 11.193 0 25c0 13.806 11.193 25 25 25 13.806 0 25-11.194 25-25C50 11.193 38.806 0 25 0zM14.625 11.275c1.7 0 3.08 1.258 3.08 2.81s-1.38 2.81-3.08 2.81c-1.702 0-3.08-1.258-3.08-2.81s1.378-2.81 3.08-2.81zm3.103 24.032h-6.085V19.428h6.085v15.88zm20.679 0h-6.115v-8.731c0-.997-.185-1.703-.554-2.117-.369-.413-.887-.62-1.554-.62-.738 0-1.337.279-1.795.837-.459.559-.687 1.56-.687 3.006v7.625h-6.086V19.428h5.666v2.586c.847-1.056 1.705-1.81 2.572-2.265.867-.453 1.923-.68 3.17-.68 1.684 0 3.002.5 3.955 1.503.951 1.001 1.427 2.549 1.427 4.642v10.093z" fill="#fff"/></svg>