<svg width="340" height="383" fill="none" xmlns="http://www.w3.org/2000/svg"><path d="M170 382.961a29.701 29.701 0 01-14.723-3.951l-46.826-27.731c-6.982-3.951-3.567-5.319-1.29-6.078 9.335-3.267 11.232-3.951 21.174-9.649 1.062-.608 2.428-.38 3.491.303l35.973 21.35c1.29.76 3.112.76 4.326 0l140.174-80.991c1.29-.76 2.125-2.279 2.125-3.799V110.433c0-1.596-.835-3.039-2.201-3.875L172.125 25.643c-1.29-.76-3.036-.76-4.326 0L27.777 106.634c-1.366.76-2.201 2.279-2.201 3.875v161.906c0 1.52.835 3.039 2.2 3.723l38.403 22.185c20.87 10.409 33.62-1.823 33.62-14.208V124.261c0-2.28 1.822-4.027 4.098-4.027h17.759c2.201 0 4.098 1.747 4.098 4.027v159.93c0 27.808-15.178 43.763-41.513 43.763-8.12 0-14.495 0-32.254-8.813l-36.733-21.198C6.148 292.701.531 282.9.531 272.339V110.433c0-10.485 5.616-20.362 14.723-25.604L155.278 3.838c8.879-5.015 20.643-5.015 29.446 0l140.174 81.067c9.107 5.242 14.724 15.043 14.724 25.604v161.906c0 10.485-5.617 20.286-14.724 25.604L184.723 379.01A29.49 29.49 0 01170 382.961zm113.156-159.627c0-30.315-20.491-38.368-63.522-44.066-43.563-5.774-47.964-8.738-47.964-18.918 0-8.434 3.718-19.678 35.973-19.678 28.763 0 39.388 6.23 43.79 25.68.379 1.823 2.049 3.191 3.946 3.191h18.215a3.96 3.96 0 002.96-1.292c.758-.836 1.138-1.975 1.062-3.115-2.808-33.506-25.045-49.081-69.973-49.081-39.996 0-63.826 16.867-63.826 45.206 0 30.695 23.754 39.204 62.08 43.003 45.915 4.483 49.482 11.245 49.482 20.286 0 15.651-12.598 22.337-42.12 22.337-37.112 0-45.232-9.345-47.964-27.808-.304-1.975-1.974-3.418-4.023-3.418h-18.138a4.002 4.002 0 00-4.022 4.026c0 23.629 12.825 51.816 74.223 51.816 44.321-.076 69.821-17.626 69.821-48.169z" fill="#fff"/></svg>