<svg width="340" height="303" fill="none" xmlns="http://www.w3.org/2000/svg"><path d="M170 120.938c-16.713 0-30.324 13.61-30.324 30.323s13.611 30.324 30.324 30.324 30.324-13.611 30.324-30.324-13.611-30.323-30.324-30.323zm-84.894 90.588l-6.694-1.657C28.602 197.246 0 175.89 0 151.208c0-24.682 28.613-46.038 78.412-58.66l6.694-1.658 1.88 6.64c5.037 17.373 11.508 34.309 19.317 50.693l1.435 2.985-1.435 3.039c-7.799 16.32-14.28 33.256-19.316 50.692l-1.88 6.587zm-9.785-103.487c-37.857 10.625-61.094 26.945-61.094 43.169 0 16.225 23.247 32.481 61.094 43.17a353.585 353.585 0 0116.766-43.17 350.222 350.222 0 01-16.766-43.169zm179.573 103.487l-1.881-6.64a331.131 331.131 0 00-19.316-50.639l-1.434-3.039 1.434-3.039c7.799-16.32 14.28-33.256 19.316-50.691l1.881-6.588 6.694 1.658C311.398 105.17 340 126.526 340 151.208c0 24.682-28.613 46.038-78.412 58.661l-6.694 1.657zm-6.981-60.318c6.811 14.716 12.453 29.166 16.766 43.17 37.91-10.679 61.094-26.945 61.094-43.17 0-16.224-23.247-32.48-61.094-43.169-4.653 14.715-10.242 29.165-16.766 43.169zm-172.71-43.222l-1.88-6.641C59.32 51.981 63.58 16.568 85 4.222c21.027-12.123 54.729 2.21 90.089 38.516l4.813 4.93-4.813 4.93a334.335 334.335 0 00-34.308 42.053l-1.934 2.71-3.325.276a335.932 335.932 0 00-53.624 8.638l-6.694 1.711zm26.893-93.904c-3.815 0-7.194.776-10.02 2.433-14.057 8.139-16.543 36.359-6.863 74.428a354.27 354.27 0 0145.825-7.14 348.961 348.961 0 0129.049-36.03c-22.079-21.525-42.999-33.702-57.991-33.702v.011zm135.861 288.416c-.053 0-.053 0 0 0-20.198 0-46.155-15.162-73.046-42.83l-4.814-4.93 4.814-4.93a334.316 334.316 0 0034.308-42.054l1.88-2.709 3.326-.329a325.976 325.976 0 0053.677-8.638l6.694-1.658 1.881 6.641c14.004 49.363 9.743 84.723-11.677 97.059a32.883 32.883 0 01-17.043 4.367v.011zm-58.055-47.866c22.079 21.526 43 33.702 57.992 33.702h.053c3.761 0 7.14-.828 9.966-2.433 14.057-8.138 16.607-36.358 6.864-74.428a346.796 346.796 0 01-45.826 7.087c-8.85 12.676-18.594 24.682-29.049 36.083v-.011zm84.894-146.646l-6.694-1.711a339.896 339.896 0 00-53.677-8.638l-3.326-.276-1.88-2.71a334.335 334.335 0 00-34.308-42.053l-4.814-4.93 4.814-4.93C200.271 6.432 233.973-7.902 255 4.222c21.42 12.336 25.681 47.76 11.677 97.123l-1.881 6.641zm-55.834-24.183c16.16 1.498 31.545 3.878 45.825 7.14 9.744-38.07 7.194-66.3-6.863-74.428-14.004-8.075-40.343 4.314-68.011 31.27a361.998 361.998 0 0129.049 36.029v-.01zM102.096 302.498c-5.982.106-11.9-1.382-17.096-4.367-21.42-12.336-25.68-47.707-11.677-97.06l1.88-6.64 6.694 1.657c16.384 4.155 34.426 7.023 53.625 8.638l3.325.33 1.881 2.709a334.316 334.316 0 0034.308 42.054l4.813 4.93-4.813 4.93c-26.838 27.667-52.795 42.829-72.94 42.829v-.01zm-16.873-91.025c-9.743 38.07-7.193 66.3 6.864 74.428 14.004 7.969 40.29-4.313 68.01-31.269-10.455-11.401-20.198-23.407-29.048-36.083a345.605 345.605 0 01-45.826-7.086v.01zM170 220.377c-11.677 0-23.63-.499-35.636-1.498l-3.326-.276-1.934-2.763c-6.746-9.743-13.175-19.752-19.093-30.047-5.982-10.296-11.453-20.804-16.543-31.546l-1.434-3.039 1.434-3.039c5.09-10.731 10.572-21.25 16.543-31.545a433.732 433.732 0 0119.093-30.048l1.934-2.762 3.326-.276a424.587 424.587 0 0171.272 0l3.326.276 1.934 2.762a425.899 425.899 0 0135.636 61.593l1.434 3.039-1.434 3.039c-10.126 21.473-22.026 42.117-35.636 61.593l-1.934 2.763-3.326.276A430.013 430.013 0 01170 220.377zm-31.099-15.385c20.92 1.604 41.278 1.604 62.251 0a414.782 414.782 0 0031.1-53.794 398.695 398.695 0 00-31.153-53.795 402.475 402.475 0 00-62.198 0 396.248 396.248 0 00-31.153 53.795 410.409 410.409 0 0031.153 53.794z" fill="#fff"/></svg>