<svg width="45" height="45" fill="none" xmlns="http://www.w3.org/2000/svg"><path d="M22.5 39.53A17.03 17.03 0 1139.53 22.5 17.05 17.05 0 0122.5 39.53zm0-31.81A14.78 14.78 0 1037.28 22.5 14.798 14.798 0 0022.5 7.72z" fill="#fff"/><path d="M22.5 39.53c-4.385 0-6.75-8.775-6.75-17.03S18.115 5.47 22.5 5.47s6.75 8.775 6.75 17.03-2.365 17.03-6.75 17.03zm0-31.81c-1.834 0-4.5 5.757-4.5 14.78 0 4.124.563 7.985 1.575 10.872.84 2.374 1.985 3.908 2.925 3.908 1.834 0 4.5-5.758 4.5-14.78 0-4.124-.563-7.985-1.575-10.872-.848-2.374-1.994-3.908-2.925-3.908z" fill="#fff"/><path d="M38.405 23.625H6.595a1.125 1.125 0 110-2.25h31.81a1.125 1.125 0 010 2.25zm-1.719-7.2H8.325a1.125 1.125 0 110-2.25h28.373a1.125 1.125 0 010 2.25h-.012zm0 14.4H8.325a1.125 1.125 0 010-2.25h28.373a1.125 1.125 0 110 2.25h-.012z" fill="#fff"/></svg>