<svg width="80" height="80" viewBox="0 0 80 80" fill="none" xmlns="http://www.w3.org/2000/svg">
<circle cx="40" cy="40" r="40" fill="white"/>
<path d="M49.0517 33.5849C50.4892 32.8647 51.6427 31.6768 52.325 30.214C53.0073 28.7511 53.1784 27.0992 52.8106 25.5263C52.4428 23.9533 51.5576 22.5515 50.2986 21.5484C49.0397 20.5453 47.4808 19.9996 45.875 20H33.125C31.5192 19.9996 29.9603 20.5453 28.7014 21.5484C27.4424 22.5515 26.5572 23.9533 26.1894 25.5263C25.8216 27.0992 25.9927 28.7511 26.675 30.214C27.3573 31.6768 28.5108 32.8647 29.9483 33.5849C28.7623 34.1788 27.7645 35.0938 27.067 36.2271C26.3695 37.3604 26 38.667 26 40.0001C26 41.3331 26.3696 42.6397 27.0671 43.773C27.7646 44.9063 28.7624 45.8213 29.9484 46.4152C28.8126 46.9848 27.8486 47.8494 27.1562 48.9196C26.4637 49.9898 26.0679 51.2266 26.0097 52.5023C25.9515 53.778 26.233 55.0462 26.825 56.1758C27.4171 57.3053 28.2982 58.2552 29.3774 58.9272C30.4565 59.5992 31.6944 59.9689 32.9631 59.9981C34.2319 60.0273 35.4853 59.715 36.5938 59.0933C37.7024 58.4717 38.6258 57.5634 39.2686 56.4623C39.9114 55.3612 40.2502 54.1073 40.25 52.8302V44.3929C40.9058 45.2439 41.7437 45.9352 42.7014 46.4154C43.6592 46.8957 44.7122 47.1527 45.7822 47.1671C46.8522 47.1816 47.9117 46.9533 48.882 46.4991C49.8522 46.0449 50.7083 45.3765 51.3866 44.5436C52.0648 43.7107 52.5479 42.7347 52.7998 41.6882C53.0517 40.6416 53.0661 39.5513 52.8417 38.4984C52.6174 37.4455 52.1602 36.457 51.504 35.6064C50.8479 34.7557 50.0097 34.0648 49.0517 33.5849ZM51.5 27.1699C51.4983 28.67 50.9056 30.1082 49.8519 31.1692C48.7982 32.2303 47.3693 32.8276 45.8787 32.8302L45.875 32.8301L45.8678 32.8303L40.25 32.8301V21.5094H45.875C47.3663 21.5111 48.7961 22.1081 49.8506 23.1692C50.9051 24.2304 51.4983 25.6692 51.5 27.1699ZM41.5095 34.3396C41.039 34.7079 40.616 35.1337 40.25 35.6071V34.3396L41.5095 34.3396ZM27.5 27.1699C27.5017 25.6692 28.0949 24.2304 29.1494 23.1692C30.2039 22.1081 31.6337 21.5111 33.125 21.5094H38.75V32.8301H33.125L33.1214 32.8302C31.6308 32.8276 30.2019 32.2303 29.1482 31.1692C28.0944 30.1082 27.5017 28.67 27.5 27.1699ZM33.125 58.4905C32.3859 58.4912 31.654 58.3452 30.971 58.061C30.2881 57.7768 29.6674 57.36 29.1446 56.8343C28.6218 56.3086 28.2071 55.6844 27.9241 54.9974C27.6412 54.3104 27.4955 53.5739 27.4955 52.8302C27.4955 52.0865 27.6412 51.3501 27.9241 50.663C28.2071 49.976 28.6218 49.3518 29.1446 48.8261C29.6674 48.3004 30.2881 47.8836 30.971 47.5994C31.654 47.3152 32.3859 47.1693 33.125 47.1699L38.75 47.1697V52.8302C38.7483 54.3309 38.1551 55.7697 37.1006 56.8308C36.0461 57.892 34.6163 58.4889 33.125 58.4905ZM38.75 45.6602L33.125 45.6604C31.6336 45.6602 30.2034 45.064 29.1488 44.0028C28.0942 42.9417 27.5015 41.5026 27.501 40.0018C27.5005 38.5011 28.0923 37.0616 29.1463 35.9998C30.2002 34.938 31.6301 34.3409 33.1214 34.3397L33.125 34.3398L38.75 34.3396V45.6602ZM45.875 45.6604C44.3841 45.66 42.9544 45.0639 41.9 44.0032C40.8456 42.9425 40.2528 41.504 40.2519 40.0037C40.2509 38.5035 40.8419 37.0642 41.8949 36.0021C42.9479 34.9401 44.3769 34.3422 45.8678 34.3398H45.875L45.8786 34.3397C47.3695 34.3416 48.7986 34.939 49.852 36.0007C50.9054 37.0624 51.4969 38.5015 51.4964 40.0018C51.4959 41.5021 50.9036 42.9409 49.8495 44.0019C48.7954 45.0629 47.3659 45.6595 45.875 45.6604Z" fill="black" stroke="black" stroke-width="0.8"/>
</svg>
