<?xml version="1.0" standalone="no"?>
<!DOCTYPE svg PUBLIC "-//W3C//DTD SVG 20010904//EN"
 "http://www.w3.org/TR/2001/REC-SVG-20010904/DTD/svg10.dtd">
<svg version="1.0" xmlns="http://www.w3.org/2000/svg"
 width="700.000000pt" height="700.000000pt" viewBox="0 0 700.000000 700.000000"
 preserveAspectRatio="xMidYMid meet">
<metadata>
Created by potrace 1.14, written by Peter Selinger 2001-2017
</metadata>
<g transform="translate(0.000000,700.000000) scale(0.100000,-0.100000)"
fill="#000000" stroke="none">
<path d="M1110 6953 c-469 -21 -861 -312 -1008 -749 -56 -166 -54 -35 -54
-2701 0 -1348 3 -2471 7 -2495 4 -24 9 -55 11 -71 19 -123 82 -277 163 -402
55 -85 214 -247 296 -300 110 -72 278 -145 366 -160 13 -2 53 -9 89 -15 91
-16 4934 -16 5035 0 39 6 79 12 90 14 49 9 211 69 263 97 158 88 318 231 403
364 79 122 148 293 163 405 3 25 8 56 11 70 3 14 6 1132 6 2485 0 2197 -1
2470 -15 2551 -37 213 -132 405 -275 557 -146 155 -293 244 -521 315 -106 33
-187 34 -2586 35 -1314 1 -2414 1 -2444 0z"/>
</g>
</svg>
