<svg width="50" height="45" viewBox="0 0 50 45" fill="none" xmlns="http://www.w3.org/2000/svg">
<g clip-path="url(#clip0_17_197)">
<path d="M48.9991 19.47L39.9539 11.6913C39.3065 11.135 38.4465 10.8286 37.5315 10.8286C36.6182 10.8286 35.7587 11.1341 35.111 11.6894C33.7766 12.8358 33.7759 14.7033 35.1104 15.8521L41.7348 21.5501L35.1107 27.2441C34.463 27.801 34.1069 28.5411 34.1075 29.3283C34.1081 30.1139 34.4645 30.8522 35.111 31.4059C35.7581 31.9619 36.6179 32.2679 37.5325 32.2679C38.4477 32.2679 39.3077 31.9619 39.954 31.4059L48.9992 23.6308C50.3336 22.4836 50.3336 20.617 48.9991 19.47ZM48.1283 22.8833L39.0831 30.6584C38.669 31.0144 38.1183 31.2105 37.5325 31.2105C36.9467 31.2105 36.396 31.0144 35.9814 30.6578C35.5673 30.3031 35.3395 29.831 35.3389 29.3278C35.3382 28.8239 35.5667 28.3496 35.9816 27.9928L43.0403 21.9247C43.2808 21.7181 43.2808 21.3832 43.0406 21.1769L35.9819 15.1051C35.1271 14.3689 35.1268 13.1723 35.981 12.4385C36.396 12.083 36.9467 11.8872 37.5316 11.8872C38.1174 11.8872 38.6684 12.0835 39.0831 12.4398L48.1283 20.2186C48.9829 20.9529 48.9829 22.1483 48.1283 22.8833Z" fill="white" stroke="white"/>
<path d="M15.8925 29.3286C15.8931 28.5417 15.5373 27.8018 14.8892 27.2444L8.26549 21.5504L14.8905 15.8518C16.224 14.703 16.2231 12.8358 14.8877 11.6886C14.2406 11.1342 13.3814 10.8289 12.4684 10.8289C11.5536 10.8289 10.6931 11.1352 10.0457 11.6915L1.00081 19.4694C-0.333659 20.6169 -0.333659 22.4839 1.00114 23.6311L10.0455 31.4053C10.6923 31.9619 11.5527 32.2682 12.4675 32.2682C13.3824 32.2682 14.2422 31.9625 14.8874 31.4072C15.5348 30.8528 15.8919 30.1145 15.8925 29.3286ZM14.0172 30.6586C13.6038 31.0144 13.0534 31.2102 12.4675 31.2102C11.8817 31.2102 11.3307 31.0141 10.9163 30.6576L1.87205 22.8832C1.01715 22.1484 1.01715 20.9526 1.87205 20.2177L10.9166 12.4395C11.3316 12.0832 11.8826 11.8869 12.4684 11.8869C13.0533 11.8869 13.6037 12.0825 14.0178 12.4371C14.8729 13.1717 14.8732 14.3684 14.019 15.1043L6.95962 21.1763C6.7195 21.3827 6.7195 21.7175 6.95994 21.9241L14.0187 27.992C14.4336 28.3491 14.662 28.8234 14.6614 29.3273C14.6606 29.8307 14.4325 30.3031 14.0172 30.6586Z" fill="white" stroke="white"/>
<path d="M33.5728 1.73849C33.1867 1.61494 32.7838 1.55225 32.3747 1.55225C30.9503 1.55225 29.662 2.32356 29.1685 3.47109L14.414 37.5818C14.0939 38.3191 14.1274 39.1192 14.5092 39.8356C14.8906 40.551 15.5724 41.0949 16.4277 41.3661C16.8137 41.4896 17.2163 41.5522 17.6242 41.5522C19.0471 41.5522 20.3372 40.7813 20.8353 39.6332L35.5916 5.51848C36.246 3.99586 35.3398 2.30004 33.5728 1.73849ZM34.4365 5.15076L19.6811 39.2639C19.3619 39.9995 18.5353 40.4939 17.6241 40.4939C17.3634 40.4939 17.1054 40.4536 16.8561 40.3738C16.3088 40.1999 15.8728 39.852 15.6288 39.3945C15.3844 38.9362 15.3628 38.4237 15.5684 37.951L30.3231 3.83874C30.639 3.10393 31.4634 2.61027 32.3746 2.61027C32.6365 2.61027 32.8944 2.65049 33.1439 2.73039C34.2758 3.08989 34.8558 4.17628 34.4365 5.15076Z" fill="white" stroke="white"/>
</g>
<defs>
<clipPath id="clip0_17_197">
<rect width="50" height="45" fill="white"/>
</clipPath>
</defs>
</svg>
