<svg width="45" height="45" viewBox="0 0 45 45" fill="none" xmlns="http://www.w3.org/2000/svg">
<path d="M22.5 39.5302C19.1317 39.5302 15.8391 38.5314 13.0385 36.6601C10.2379 34.7888 8.05506 32.129 6.76608 29.0172C5.47711 25.9053 5.13985 22.4811 5.79697 19.1775C6.45408 15.874 8.07606 12.8395 10.4578 10.4578C12.8395 8.07606 15.874 6.45408 19.1775 5.79697C22.4811 5.13985 25.9053 5.47711 29.0172 6.76608C32.129 8.05506 34.7888 10.2379 36.6601 13.0385C38.5314 15.8391 39.5302 19.1317 39.5302 22.5C39.5249 27.015 37.7289 31.3436 34.5363 34.5363C31.3436 37.7289 27.015 39.5249 22.5 39.5302V39.5302ZM22.5 7.71973C19.5767 7.71973 16.7191 8.58658 14.2885 10.2107C11.8579 11.8347 9.9635 14.1431 8.84481 16.8438C7.72613 19.5446 7.43343 22.5164 8.00373 25.3835C8.57403 28.2506 9.98171 30.8841 12.0488 32.9512C14.1158 35.0183 16.7494 36.4259 19.6165 36.9962C22.4836 37.5665 25.4554 37.2738 28.1561 36.1552C30.8569 35.0365 33.1652 33.142 34.7893 30.7114C36.4134 28.2808 37.2802 25.4232 37.2802 22.5C37.2755 18.5815 35.7167 14.8248 32.9459 12.054C30.1751 9.28323 26.4185 7.7245 22.5 7.71973V7.71973Z" fill="white"/>
<path d="M22.5 39.5302C18.1147 39.5302 15.75 30.7552 15.75 22.5C15.75 14.2447 18.1147 5.46973 22.5 5.46973C26.8852 5.46973 29.25 14.2447 29.25 22.5C29.25 30.7552 26.8852 39.5302 22.5 39.5302ZM22.5 7.71973C20.6662 7.71973 18 13.4775 18 22.5C18 26.6242 18.5625 30.4852 19.575 33.372C20.4142 35.7457 21.5595 37.2802 22.5 37.2802C24.3337 37.2802 27 31.5225 27 22.5C27 18.3757 26.4375 14.5147 25.425 11.628C24.5767 9.25423 23.4315 7.71973 22.5 7.71973Z" fill="white"/>
<path d="M38.4053 23.625H6.59476C6.29639 23.625 6.01024 23.5065 5.79926 23.2955C5.58828 23.0845 5.46976 22.7984 5.46976 22.5C5.46976 22.2016 5.58828 21.9155 5.79926 21.7045C6.01024 21.4935 6.29639 21.375 6.59476 21.375H38.4053C38.7036 21.375 38.9898 21.4935 39.2008 21.7045C39.4117 21.9155 39.5303 22.2016 39.5303 22.5C39.5303 22.7984 39.4117 23.0845 39.2008 23.2955C38.9898 23.5065 38.7036 23.625 38.4053 23.625Z" fill="white"/>
<path d="M36.6863 16.425H8.32501C8.02664 16.425 7.7405 16.3065 7.52952 16.0955C7.31854 15.8846 7.20001 15.5984 7.20001 15.3C7.20001 15.0017 7.31854 14.7155 7.52952 14.5046C7.7405 14.2936 8.02664 14.175 8.32501 14.175H36.6975C36.9959 14.175 37.282 14.2936 37.493 14.5046C37.704 14.7155 37.8225 15.0017 37.8225 15.3C37.8225 15.5984 37.704 15.8846 37.493 16.0955C37.282 16.3065 36.9959 16.425 36.6975 16.425H36.6863Z" fill="white"/>
<path d="M36.6863 30.825H8.32501C8.02664 30.825 7.7405 30.7064 7.52952 30.4954C7.31854 30.2845 7.20001 29.9983 7.20001 29.7C7.20001 29.4016 7.31854 29.1154 7.52952 28.9045C7.7405 28.6935 8.02664 28.575 8.32501 28.575H36.6975C36.9959 28.575 37.282 28.6935 37.493 28.9045C37.704 29.1154 37.8225 29.4016 37.8225 29.7C37.8225 29.9983 37.704 30.2845 37.493 30.4954C37.282 30.7064 36.9959 30.825 36.6975 30.825H36.6863Z" fill="white"/>
</svg>
