<svg width="25" height="25" fill="none" xmlns="http://www.w3.org/2000/svg"><path d="M23.438 11.719a.78.78 0 01-.454-.149L12.5 4.086 2.016 11.57a.781.781 0 01-.907-1.265l10.938-7.813a.781.781 0 01.906 0l10.938 7.813a.78.78 0 01-.453 1.414zM3.906 7.031a.781.781 0 01-.781-.781V3.125a.781.781 0 01.781-.781h3.125a.781.781 0 010 1.562H4.688V6.25a.781.781 0 01-.782.781z" fill="#101820"/><path d="M19.531 22.656h-3.906a.781.781 0 01-.781-.781v-5.469h-4.688v5.469a.781.781 0 01-.781.781H5.469a2.344 2.344 0 01-2.344-2.343V12.5a.781.781 0 111.563 0v7.813a.781.781 0 00.78.78h3.126v-5.468a.781.781 0 01.781-.781h6.25a.781.781 0 01.781.781v5.469h3.125a.781.781 0 00.782-.782V12.5a.781.781 0 111.562 0v7.813a2.344 2.344 0 01-2.344 2.343z" fill="#101820"/></svg>