<svg width="25" height="25" fill="none" xmlns="http://www.w3.org/2000/svg"><path d="M13.085 3.891C7.278 3.367 2.419 8.206 2.944 14.032c.403 4.456 3.991 8.045 8.447 8.448 5.807.524 10.665-4.335 10.141-10.141-.403-4.476-3.992-8.065-8.447-8.448zm5.282 4.678a7.799 7.799 0 011.532 4.193c0 .1-.08.161-.181.141-1.714-.343-3.327-.403-4.839-.181-.06 0-.12-.02-.141-.08-.182-.424-.343-.807-.524-1.19-.04-.081 0-.162.06-.182 1.412-.645 2.742-1.512 3.891-2.681.06-.08.162-.08.202-.02zm-1.371-1.19a11.27 11.27 0 01-3.508 2.42c-.06.04-.141 0-.182-.061a30.89 30.89 0 00-2.5-3.891c-.06-.08-.02-.202.081-.222a7.48 7.48 0 011.35-.121c1.795 0 3.448.625 4.759 1.653a.16.16 0 010 .222zM9.052 6.31a27.23 27.23 0 012.682 3.952c.04.08 0 .181-.08.202-1.977.564-4.194.826-6.674.927-.101 0-.161-.08-.141-.181A7.653 7.653 0 018.87 6.29c.06-.04.141-.02.181.02zm-4.334 6.755c2.661-.081 5.322-.343 7.762-1.11.06-.02.141 0 .161.081.141.303.282.625.444.948.04.08 0 .161-.081.201-2.42.787-4.577 2.38-6.512 4.819-.06.06-.161.08-.222.02-1.089-1.17-1.653-2.923-1.693-4.778 0-.121.06-.181.14-.181zm2.943 6.088c1.774-2.278 3.73-3.75 5.948-4.435.08-.02.161.02.181.08a29.528 29.528 0 011.351 5.343c.02.06-.02.141-.08.161a7.728 7.728 0 01-2.823.545 7.689 7.689 0 01-4.536-1.492c-.081-.06-.081-.141-.04-.202zm9.012.02a35.019 35.019 0 00-1.23-4.677c-.02-.08.02-.181.122-.181 1.27-.142 2.62-.04 4.072.282.08.02.121.1.121.181a7.642 7.642 0 01-2.843 4.496c-.1.06-.242 0-.242-.1z" fill="#000"/></svg>