<svg width="50" height="45" fill="none" xmlns="http://www.w3.org/2000/svg"><g clip-path="url(#clip0_17_197)" fill="#fff" stroke="#fff"><path d="M49 19.47l-9.046-7.779c-.648-.556-1.508-.862-2.422-.862-.914 0-1.773.305-2.421.86-1.334 1.147-1.335 3.014 0 4.163l6.624 5.698-6.624 5.694c-.648.557-1.004 1.297-1.003 2.084 0 .786.357 1.524 1.003 2.078.647.556 1.507.862 2.422.862.915 0 1.775-.306 2.421-.862l9.045-7.775c1.335-1.147 1.335-3.014 0-4.161zm-.872 3.413l-9.045 7.775a2.37 2.37 0 01-1.55.552 2.37 2.37 0 01-1.552-.552c-.414-.355-.642-.827-.642-1.33 0-.504.228-.978.643-1.335l7.058-6.068a.478.478 0 000-.748l-7.058-6.072c-.855-.736-.855-1.933-.001-2.667a2.376 2.376 0 011.55-.55c.586 0 1.137.196 1.552.552l9.045 7.779c.855.734.855 1.93 0 2.664zm-32.235 6.446c0-.787-.356-1.527-1.004-2.085L8.265 21.55l6.625-5.698c1.334-1.149 1.333-3.016-.002-4.163-.647-.555-1.507-.86-2.42-.86-.914 0-1.775.306-2.422.862L1 19.47c-1.335 1.148-1.335 3.015 0 4.162l9.045 7.774c.646.557 1.507.863 2.421.863.915 0 1.775-.306 2.42-.86.648-.555 1.005-1.294 1.005-2.08zm-1.876 1.33a2.368 2.368 0 01-1.55.551 2.37 2.37 0 01-1.55-.552l-9.045-7.775c-.855-.735-.855-1.93 0-2.665l9.045-7.778a2.375 2.375 0 011.551-.553c.585 0 1.136.195 1.55.55.855.735.855 1.931.001 2.667l-7.06 6.072a.478.478 0 000 .748l7.06 6.068c.415.357.643.831.642 1.335 0 .504-.229.976-.644 1.332zM33.573 1.738a3.925 3.925 0 00-1.198-.186c-1.425 0-2.713.772-3.206 1.92l-14.755 34.11a2.547 2.547 0 00.095 2.254c.382.715 1.063 1.259 1.919 1.53.386.124.788.186 1.196.186 1.423 0 2.713-.77 3.211-1.919L35.592 5.518c.654-1.522-.252-3.218-2.02-3.78zm.864 3.413L19.68 39.264c-.32.735-1.146 1.23-2.057 1.23-.26 0-.519-.04-.768-.12-.547-.174-.983-.522-1.227-.98a1.63 1.63 0 01-.06-1.443L30.322 3.839c.316-.735 1.14-1.229 2.052-1.229.261 0 .52.04.769.12 1.132.36 1.712 1.446 1.293 2.42z"/></g><defs><clipPath id="clip0_17_197"><path fill="#fff" d="M0 0h50v45H0z"/></clipPath></defs></svg>