<svg width="25" height="25" viewBox="0 0 25 25" fill="none" xmlns="http://www.w3.org/2000/svg">
<path d="M12.5 0.195312C5.72266 0.195312 0.195312 5.72266 0.195312 12.5C0.195312 19.2773 5.72266 24.8047 12.5 24.8047C19.2773 24.8047 24.8047 19.2773 24.8047 12.5C24.8047 5.72266 19.2773 0.195312 12.5 0.195312ZM12.5 23.2422C6.58203 23.2422 1.75781 18.418 1.75781 12.5C1.75781 6.58203 6.58203 1.75781 12.5 1.75781C18.418 1.75781 23.2422 6.58203 23.2422 12.5C23.2422 18.418 18.418 23.2422 12.5 23.2422Z" fill="black"/>
<path d="M13.2812 10.6445H11.7188V18.457H13.2812V10.6445Z" fill="black"/>
<path d="M13.2812 6.93359H11.7188V8.49609H13.2812V6.93359Z" fill="black"/>
</svg>
