<svg width="25" height="25" viewBox="0 0 25 25" fill="none" xmlns="http://www.w3.org/2000/svg">
<path d="M24.4318 3.40912H0.568182C0.253977 3.40912 0 3.6631 0 3.9773V21.0228C0 21.337 0.253977 21.5909 0.568182 21.5909H24.4318C24.7455 21.5909 25 21.337 25 21.0228V3.9773C25 3.6631 24.7455 3.40912 24.4318 3.40912ZM23.8636 19.0801L16.825 12.0421L16.0216 12.8455L23.6307 20.4546H1.36932L8.97841 12.8455L8.175 12.0421L1.13636 19.0801V4.54548H23.8636V19.0801Z" fill="black"/>
<path d="M22.7153 4.54547L12.5 14.7608L2.28465 4.54547H1.13635V5.00399L12.0983 15.9659C12.3204 16.1881 12.6795 16.1881 12.9017 15.9659L23.8636 5.00399V4.54547H22.7153Z" fill="black"/>
</svg>
