<svg width="25" height="25" viewBox="0 0 25 25" fill="none" xmlns="http://www.w3.org/2000/svg">
<path d="M23.4375 11.7187C23.2747 11.7177 23.1162 11.6658 22.9844 11.5703L12.5 4.08593L2.01561 11.5703C1.84741 11.6699 1.64797 11.7029 1.45667 11.6626C1.26537 11.6224 1.09611 11.5119 0.982296 11.3529C0.868485 11.194 0.818398 10.9982 0.841922 10.8041C0.865446 10.61 0.960871 10.4318 1.10936 10.3047L12.0469 2.49218C12.1792 2.39798 12.3376 2.34735 12.5 2.34735C12.6624 2.34735 12.8208 2.39798 12.9531 2.49218L23.8906 10.3047C24.024 10.4012 24.1235 10.5375 24.1748 10.694C24.2261 10.8504 24.2267 11.0191 24.1765 11.1759C24.1262 11.3327 24.0277 11.4697 23.895 11.5671C23.7623 11.6646 23.6022 11.7177 23.4375 11.7187Z" fill="#101820"/>
<path d="M3.90625 7.03125C3.69905 7.03125 3.50034 6.94894 3.35382 6.80243C3.20731 6.65591 3.125 6.4572 3.125 6.25V3.125C3.125 2.9178 3.20731 2.71909 3.35382 2.57257C3.50034 2.42606 3.69905 2.34375 3.90625 2.34375H7.03125C7.23845 2.34375 7.43716 2.42606 7.58368 2.57257C7.73019 2.71909 7.8125 2.9178 7.8125 3.125C7.8125 3.3322 7.73019 3.53091 7.58368 3.67743C7.43716 3.82394 7.23845 3.90625 7.03125 3.90625H4.6875V6.25C4.6875 6.4572 4.60519 6.65591 4.45868 6.80243C4.31216 6.94894 4.11345 7.03125 3.90625 7.03125Z" fill="#101820"/>
<path d="M19.5312 22.6562H15.625C15.4178 22.6562 15.2191 22.5739 15.0726 22.4274C14.9261 22.2809 14.8438 22.0822 14.8438 21.875V16.4062H10.1562V21.875C10.1562 22.0822 10.0739 22.2809 9.92743 22.4274C9.78091 22.5739 9.5822 22.6562 9.375 22.6562H5.46875C4.84715 22.6562 4.25101 22.4093 3.81147 21.9698C3.37193 21.5302 3.125 20.9341 3.125 20.3125V12.5C3.125 12.2928 3.20731 12.0941 3.35382 11.9476C3.50034 11.8011 3.69905 11.7188 3.90625 11.7188C4.11345 11.7188 4.31216 11.8011 4.45868 11.9476C4.60519 12.0941 4.6875 12.2928 4.6875 12.5V20.3125C4.6875 20.5197 4.76981 20.7184 4.91632 20.8649C5.06284 21.0114 5.26155 21.0938 5.46875 21.0938H8.59375V15.625C8.59375 15.4178 8.67606 15.2191 8.82257 15.0726C8.96909 14.9261 9.1678 14.8438 9.375 14.8438H15.625C15.8322 14.8438 16.0309 14.9261 16.1774 15.0726C16.3239 15.2191 16.4062 15.4178 16.4062 15.625V21.0938H19.5312C19.7385 21.0938 19.9372 21.0114 20.0837 20.8649C20.2302 20.7184 20.3125 20.5197 20.3125 20.3125V12.5C20.3125 12.2928 20.3948 12.0941 20.5413 11.9476C20.6878 11.8011 20.8865 11.7188 21.0938 11.7188C21.301 11.7188 21.4997 11.8011 21.6462 11.9476C21.7927 12.0941 21.875 12.2928 21.875 12.5V20.3125C21.875 20.9341 21.6281 21.5302 21.1885 21.9698C20.749 22.4093 20.1529 22.6562 19.5312 22.6562V22.6562Z" fill="#101820"/>
</svg>
