<svg width="25" height="25" viewBox="0 0 25 25" fill="none" xmlns="http://www.w3.org/2000/svg">
<path d="M13.0847 3.89113C7.27821 3.36693 2.41934 8.20564 2.94354 14.0323C3.34676 18.4879 6.93547 22.0766 11.3911 22.4798C17.1976 23.004 22.0564 18.1452 21.5322 12.3387C21.129 7.8629 17.5403 4.27419 13.0847 3.89113ZM18.3669 8.56855C19.254 9.75806 19.7984 11.1895 19.8992 12.7621C19.8992 12.8629 19.8185 12.9234 19.7177 12.9032C18.004 12.5605 16.3911 12.5 14.879 12.7218C14.8185 12.7218 14.7581 12.7016 14.7379 12.6411C14.5564 12.2177 14.3951 11.8347 14.2137 11.4516C14.1734 11.371 14.2137 11.2903 14.2742 11.2702C15.6855 10.625 17.0161 9.75806 18.1653 8.58871C18.2258 8.50806 18.3266 8.50806 18.3669 8.56855ZM16.996 7.37903C15.9677 8.42742 14.7984 9.21371 13.4879 9.79838C13.4274 9.83871 13.3468 9.79838 13.3064 9.7379C12.3992 8.06451 11.4919 6.75403 10.8064 5.84677C10.746 5.76613 10.7863 5.64516 10.8871 5.625C11.3306 5.54435 11.7742 5.50403 12.2379 5.50403C14.0322 5.50403 15.6855 6.12903 16.996 7.15726C17.0564 7.21774 17.0564 7.31855 16.996 7.37903ZM9.05241 6.31048C9.69757 7.09677 10.7056 8.42742 11.7339 10.2621C11.7742 10.3427 11.7339 10.4435 11.6532 10.4637C9.67741 11.0282 7.45966 11.2903 4.97983 11.3911C4.87902 11.3911 4.81854 11.3105 4.8387 11.2097C5.40321 9.05242 6.89515 7.25806 8.87095 6.29032C8.93144 6.25 9.01208 6.27016 9.05241 6.31048ZM4.71773 13.0645C7.37902 12.9839 10.0403 12.7218 12.4798 11.9556C12.5403 11.9355 12.621 11.9556 12.6411 12.0363C12.7822 12.3387 12.9234 12.6613 13.0847 12.9839C13.125 13.0645 13.0847 13.1452 13.004 13.1855C10.5847 13.9718 8.42741 15.5645 6.49192 18.004C6.43144 18.0645 6.33063 18.0847 6.27015 18.0242C5.18144 16.8548 4.61692 15.1008 4.5766 13.246C4.5766 13.125 4.63708 13.0645 4.71773 13.0645ZM7.66128 19.1532C9.43547 16.875 11.3911 15.4032 13.6089 14.7177C13.6895 14.6976 13.7701 14.7379 13.7903 14.7984C14.3548 16.3911 14.8387 18.1855 15.1411 20.1411C15.1613 20.2016 15.121 20.2823 15.0605 20.3024C14.1935 20.6452 13.2258 20.8468 12.2379 20.8468C10.5443 20.8468 8.97176 20.2823 7.7016 19.3548C7.62096 19.2944 7.62095 19.2137 7.66128 19.1532ZM16.6734 19.1734C16.3508 17.4798 15.9274 15.9274 15.4435 14.496C15.4234 14.4153 15.4637 14.3145 15.5645 14.3145C16.8347 14.1734 18.1855 14.2742 19.6371 14.5968C19.7177 14.6169 19.7581 14.6976 19.7581 14.7782C19.375 16.5927 18.3468 18.1855 16.9153 19.2742C16.8145 19.3347 16.6734 19.2742 16.6734 19.1734Z" fill="black"/>
</svg>
