<svg width="25" height="25" viewBox="0 0 25 25" fill="none" xmlns="http://www.w3.org/2000/svg">
<g clip-path="url(#clip0_82_30)">
<path d="M20.8036 24.0385H4.19644C2.50001 24.0385 1.07144 22.5 1.07144 20.6731V8.94229C1.07144 7.11537 2.50001 5.5769 4.19644 5.5769H20.8036C22.5 5.5769 23.9286 7.11537 23.9286 8.94229V20.6731C23.9286 22.5 22.5 24.0385 20.8036 24.0385Z" stroke="black" stroke-width="2" stroke-miterlimit="10"/>
<path d="M18.2143 5.57692H6.78574V2.88462C6.78574 1.82693 7.58931 0.961548 8.57145 0.961548H16.4286C17.4107 0.961548 18.2143 1.82693 18.2143 2.88462V5.57692Z" stroke="black" stroke-width="2" stroke-miterlimit="10"/>
<path d="M1.78571 13.2692H23.9286" stroke="black" stroke-width="2" stroke-miterlimit="10"/>
<path d="M6.07141 11.7308V15.5769" stroke="black" stroke-width="2" stroke-miterlimit="10" stroke-linecap="round"/>
<path d="M18.9286 11.7308V15.5769" stroke="black" stroke-width="2" stroke-miterlimit="10" stroke-linecap="round"/>
</g>
<defs>
<clipPath id="clip0_82_30">
<rect width="25" height="25" fill="white"/>
</clipPath>
</defs>
</svg>
