<svg width="80" height="80" fill="none" xmlns="http://www.w3.org/2000/svg"><circle cx="40" cy="40" r="40" fill="#fff"/><path d="M49.052 33.585a7.147 7.147 0 003.273-3.371 7.21 7.21 0 00.486-4.688 7.173 7.173 0 00-2.512-3.978A7.095 7.095 0 0045.875 20h-12.75a7.095 7.095 0 00-4.424 1.548 7.173 7.173 0 00-2.512 3.978 7.21 7.21 0 00.486 4.688 7.147 7.147 0 003.273 3.37 7.137 7.137 0 00-2.881 2.643 7.2 7.2 0 000 7.546 7.137 7.137 0 002.881 2.642 7.138 7.138 0 00-2.792 2.505 7.2 7.2 0 00-.331 7.256 7.151 7.151 0 002.552 2.751 7.091 7.091 0 007.217.166 7.145 7.145 0 002.675-2.63 7.203 7.203 0 00.981-3.633v-8.437a7.13 7.13 0 002.451 2.022 7.085 7.085 0 006.181.084 7.129 7.129 0 002.505-1.955 7.21 7.21 0 00.117-8.937 7.13 7.13 0 00-2.452-2.022zM51.5 27.17a5.685 5.685 0 01-1.648 4 5.613 5.613 0 01-3.973 1.66H40.25V21.51h5.625a5.614 5.614 0 013.976 1.66 5.685 5.685 0 011.649 4zm-9.99 7.17a7.195 7.195 0 00-1.26 1.267V34.34h1.26zM27.5 27.17c.002-1.5.595-2.94 1.65-4a5.614 5.614 0 013.975-1.66h5.625v11.32h-5.629a5.613 5.613 0 01-3.973-1.66 5.685 5.685 0 01-1.648-4zm5.625 31.32a5.592 5.592 0 01-3.98-1.656 5.664 5.664 0 01-1.65-4.004 5.693 5.693 0 011.65-4.004 5.623 5.623 0 013.98-1.656h5.625v5.66a5.685 5.685 0 01-1.65 4 5.613 5.613 0 01-3.975 1.66zm5.625-12.83h-5.625a5.606 5.606 0 01-3.976-1.657 5.679 5.679 0 01-1.648-4.001c0-1.5.591-2.94 1.645-4.002a5.607 5.607 0 013.975-1.66h5.629v11.32zm7.125 0c-1.49 0-2.92-.596-3.975-1.657a5.678 5.678 0 01-1.648-4 5.673 5.673 0 011.643-4 5.607 5.607 0 013.973-1.663h.011A5.61 5.61 0 0149.852 36a5.678 5.678 0 011.644 4.002c0 1.5-.592 2.939-1.647 4a5.607 5.607 0 01-3.974 1.658z" fill="#000" stroke="#000" stroke-width=".8"/></svg>